<svg width="179" height="35" viewBox="0 0 179 35" fill="none" xmlns="http://www.w3.org/2000/svg">
<line x1="112.75" y1="16.882" x2="178.75" y2="16.882" stroke="#0063A8"/>
<line y1="16.882" x2="66" y2="16.882" stroke="#0063A8"/>
<circle cx="88.875" cy="17.382" r="16" stroke="#0063A8" stroke-width="2.76396" stroke-dasharray="0.98 8.39"/>
<mask id="path-4-inside-1_4492_1161" fill="white">
<path fill-rule="evenodd" clip-rule="evenodd" d="M88.2639 6.19443L81.3581 19.3492C81.0086 20.0151 81.4915 20.814 82.2435 20.814H85.9264L85.7465 27.3272C85.688 29.4454 88.5316 30.1882 89.5165 28.3121L96.4223 15.1573C96.7719 14.4914 96.289 13.6924 95.5369 13.6924H91.854L92.034 7.17929C92.0925 5.06112 89.2488 4.31826 88.2639 6.19443Z"/>
</mask>
<path fill-rule="evenodd" clip-rule="evenodd" d="M88.2639 6.19443L81.3581 19.3492C81.0086 20.0151 81.4915 20.814 82.2435 20.814H85.9264L85.7465 27.3272C85.688 29.4454 88.5316 30.1882 89.5165 28.3121L96.4223 15.1573C96.7719 14.4914 96.289 13.6924 95.5369 13.6924H91.854L92.034 7.17929C92.0925 5.06112 89.2488 4.31826 88.2639 6.19443Z" fill="#FFDF4E"/>
<path d="M81.3581 19.3492L82.587 19.9943H82.587L81.3581 19.3492ZM88.2639 6.19443L89.4927 6.83952V6.83952L88.2639 6.19443ZM85.9264 20.814L87.3138 20.8524L87.3532 19.4262H85.9264V20.814ZM85.7465 27.3272L84.3592 27.2889V27.2889L85.7465 27.3272ZM89.5165 28.3121L88.2877 27.667V27.667L89.5165 28.3121ZM96.4223 15.1573L97.6511 15.8023V15.8023L96.4223 15.1573ZM91.854 13.6924L90.4667 13.6541L90.4273 15.0803H91.854V13.6924ZM92.034 7.17929L93.4213 7.21762V7.21762L92.034 7.17929ZM82.587 19.9943L89.4927 6.83952L87.0351 5.54934L80.1293 18.7042L82.587 19.9943ZM82.2435 19.4262C82.5352 19.4262 82.7225 19.7361 82.587 19.9943L80.1293 18.7042C79.2946 20.2942 80.4478 22.2019 82.2435 22.2019V19.4262ZM85.9264 19.4262H82.2435V22.2019H85.9264V19.4262ZM87.1338 27.3655L87.3138 20.8524L84.5391 20.7757L84.3592 27.2889L87.1338 27.3655ZM88.2877 27.667C87.9863 28.2412 87.1159 28.0139 87.1338 27.3655L84.3592 27.2889C84.26 30.8769 89.077 32.1353 90.7454 28.9572L88.2877 27.667ZM95.1935 14.5122L88.2877 27.667L90.7454 28.9572L97.6511 15.8023L95.1935 14.5122ZM95.5369 15.0803C95.2452 15.0803 95.0579 14.7704 95.1935 14.5122L97.6511 15.8023C98.4858 14.2123 97.3327 12.3046 95.5369 12.3046V15.0803ZM91.854 15.0803H95.5369V12.3046H91.854V15.0803ZM90.6466 7.14096L90.4667 13.6541L93.2413 13.7308L93.4213 7.21762L90.6466 7.14096ZM89.4927 6.83952C89.7942 6.26529 90.6646 6.49264 90.6466 7.14096L93.4213 7.21762C93.5204 3.62961 88.7035 2.37124 87.0351 5.54934L89.4927 6.83952Z" fill="#0063A8" mask="url(#path-4-inside-1_4492_1161)"/>
</svg>
